<svg xmlns:xlink="http://www.w3.org/1999/xlink" xmlns="http://www.w3.org/2000/svg" width="102.15" height="22" viewBox="0 0 102.15 22"><defs><style>.cls-1{fill:#fff;}.cls-2{fill:#f4bb03;}</style></defs><g id="Layer_2" data-name="Layer 2"><g id="Layer_1-2" data-name="Layer 1"><circle class="cls-1" cx="68.08" cy="2.14" r="2.14"/><path class="cls-1" d="M66.22,22h3.71V5.86H66.22Z"/><path class="cls-1" d="M84.42,7.5a5.63,5.63,0,0,0-3.87-1.64H72.42V22h3.71V9.58h4.36a1.86,1.86,0,0,1,1.84,1.85h0V22H86V11.37h0A5.54,5.54,0,0,0,84.42,7.5Z"/><path class="cls-1" d="M61.27,2.14H57.55v16.1A3.74,3.74,0,0,0,61.27,22h2.48V18.24H61.89a.62.62,0,0,1-.62-.62v-8h2.48V5.86H61.27V2.14Z"/><rect class="cls-1" x="45.36" y="2.14" width="3.72" height="19.82"/><path class="cls-1" d="M42.68,9.55h0A3.72,3.72,0,0,0,39,5.86H31.55V9.58h6.81a.62.62,0,0,1,.62.62v1H34.44A5.37,5.37,0,0,0,34,22H39a2.85,2.85,0,0,0,.51,0,3.74,3.74,0,0,0,3.2-3.67h0V9.59h0v0ZM39,18.26H34.42a1.67,1.67,0,0,1,0-3.34H39Z"/><path class="cls-1" d="M102.15,9.55h0a3.73,3.73,0,0,0-3.69-3.69H91V9.58h6.81a.62.62,0,0,1,.62.62v1H93.89A5.37,5.37,0,0,0,93.47,22h5a2.85,2.85,0,0,0,.51,0,3.74,3.74,0,0,0,3.2-3.67h0V9.59h0S102.15,9.56,102.15,9.55Zm-3.72,8.71H93.89a1.67,1.67,0,0,1,0-3.34h4.54Z"/><rect class="cls-1" x="51.07" y="2.14" width="3.72" height="19.82"/><polygon class="cls-2" points="25.78 7.34 25.61 5.94 15.94 5.94 15.64 7.34 25.78 7.34"/><path class="cls-1" d="M26,8.72H15.34l-.11.46v0l0,.24h0l-1.35,6.43-2.7-12.8a1.57,1.57,0,0,0-.27-.55.64.64,0,0,0-.48-.2H3.21a.62.62,0,0,0-.43.16.9.9,0,0,0-.31.59L0,22H4.6a.62.62,0,0,0,.46-.18.89.89,0,0,0,.28-.55L6.84,9.79a.38.38,0,0,1,.76,0L10,21.27a1.45,1.45,0,0,0,.26.51.6.6,0,0,0,.49.22H17a.57.57,0,0,0,.48-.22,1.54,1.54,0,0,0,.26-.51L20.11,9.75a.39.39,0,0,1,.76,0l1.5,11.47a.86.86,0,0,0,.28.56.65.65,0,0,0,.46.18h4.6L26.06,9.44Z"/><path class="cls-2" d="M25.42,4.52l-.18-1.45a.9.9,0,0,0-.31-.59.62.62,0,0,0-.43-.16H17.29a.62.62,0,0,0-.47.2,1.42,1.42,0,0,0-.27.55l-.31,1.45Z"/></g></g></svg>